<svg xmlns="http://www.w3.org/2000/svg" viewBox="0 0 320 170" role="img" aria-labelledby="indiaPostTitle">
  <title id="indiaPostTitle">India Post symbol</title>
  <rect width="320" height="170" fill="none"/>
  <rect x="84" y="42" width="150" height="84" rx="2" fill="#c12624"/>
  <path
    d="M10 82C49 69 76 66 103 74c22 6 46 19 81 18 48-1 84-30 126-63"
    fill="none"
    stroke="#ffd400"
    stroke-linecap="round"
    stroke-width="10"
  />
  <path
    d="M29 95c32-13 56-16 81-9 21 6 45 18 77 17 44-1 78-26 114-56"
    fill="none"
    stroke="#ffd400"
    stroke-linecap="round"
    stroke-width="10"
  />
  <path
    d="M50 107c24-12 45-15 67-10 20 6 41 16 69 15 36-1 68-20 99-45"
    fill="none"
    stroke="#ffd400"
    stroke-linecap="round"
    stroke-width="10"
  />
</svg>
